<svg width="41" height="41" viewBox="0 0 40 40" fill="none" xmlns="http://www.w3.org/2000/svg">
<path fill-rule="evenodd" clip-rule="evenodd" d="M35 26.7143C35 26.3733 34.8683 26.0463 34.6339 25.8051C34.3995 25.564 34.0815 25.4286 33.75 25.4286H26.25C25.9185 25.4286 25.6005 25.564 25.3661 25.8051C25.1317 26.0463 25 26.3733 25 26.7143C25 27.0553 25.1317 27.3823 25.3661 27.6234C25.6005 27.8645 25.9185 28 26.25 28H33.75C34.0815 28 34.3995 27.8645 34.6339 27.6234C34.8683 27.3823 35 27.0553 35 26.7143ZM35 19C35 18.659 34.8683 18.332 34.6339 18.0909C34.3995 17.8497 34.0815 17.7143 33.75 17.7143H16.25C15.9185 17.7143 15.6005 17.8497 15.3661 18.0909C15.1317 18.332 15 18.659 15 19C15 19.341 15.1317 19.668 15.3661 19.9091C15.6005 20.1503 15.9185 20.2857 16.25 20.2857H33.75C34.0815 20.2857 34.3995 20.1503 34.6339 19.9091C34.8683 19.668 35 19.341 35 19ZM35 11.2857C35 10.9447 34.8683 10.6177 34.6339 10.3766C34.3995 10.1355 34.0815 10 33.75 10H6.25C5.91848 10 5.60054 10.1355 5.36612 10.3766C5.1317 10.6177 5 10.9447 5 11.2857C5 11.6267 5.1317 11.9537 5.36612 12.1949C5.60054 12.436 5.91848 12.5714 6.25 12.5714H33.75C34.0815 12.5714 34.3995 12.436 34.6339 12.1949C34.8683 11.9537 35 11.6267 35 11.2857Z" fill="#8C82FC"/>
</svg>
